# xmcd
#
# Track frame offsets:
#	150
#	19957
#	32900
#	47970
#	61520
#	73055
#	85022
#	95837
#	107925
#	122745
#	136652
#	150417
#	161600
#	174715
#	183430
#	197330
#	228830
#	241242
#	252285
#	265737
#	278177
#	298337
#
# Disc length: 4166
#
# Revision: 4
# Processed by: cddbd v1.5.1PL0 Copyright (c) Steve Scherf et al.
# Submitted via: ExactAudioCopy v0.90a11
# Normalized: r3:DSETVAR1
#
DISCID=35104416
DTITLE=Various Artist - The Great Tomato Blues Package [Disc1]
DYEAR=1900
DGENRE=
TTITLE0=Johnny Shines - Too Wet To Plow
TTITLE1=Mississippi Fred McDowell - You Got To Move
TTITLE2=Peg Leg Sam - Joshua Fit The Battle Of Jericho
TTITLE3=Lousiana Red - Sweet Blood Call
TTITLE4=Lighnin' Hopkins - Cryin' Shame
TTITLE5=Sonny Terry - Playing With The Thing
TTITLE6=Sonny Boy Wiiliams - Fattening Frogs For Snakes
TTITLE7=Roosevelt Sykes - Music Is My Business
TTITLE8=Jelly Roll Morton - Dead Man Blues
TTITLE9=Louis Armstrong - St. Louis Blues
TTITLE10=Bessie Smith - Alexander's Ragtime Band
TTITLE11=Champion Jack Dupree - Shake Baby Shake
TTITLE12=Willie Mabon - Poison Ivy
TTITLE13=Billie Holiday - Please Don't Talk About Me When I'm Gone
TTITLE14=Charlie Parker - Parker's Mood
TTITLE15=`Big Mama' Thornton - Ball and Chain
TTITLE16=Little Walter - Juke
TTITLE17=Howlin' Wolf - Little Red Rooster
TTITLE18=Buster Brown - Fanny Mae
TTITLE19=Elmore James - The Sky Is Crying
TTITLE20=Aretha Franklin - There Is A Fountain
TTITLE21=Ray Charles - Blues Is My Middle Name
EXTD=
EXTT0=
EXTT1=
EXTT2=
EXTT3=
EXTT4=
EXTT5=
EXTT6=
EXTT7=
EXTT8=
EXTT9=
EXTT10=
EXTT11=
EXTT12=
EXTT13=
EXTT14=
EXTT15=
EXTT16=
EXTT17=
EXTT18=
EXTT19=
EXTT20=
EXTT21=
PLAYORDER=
